<?xml version="1.0" encoding="UTF-8" standalone="no"?>
<svg
   xmlns:dc="http://purl.org/dc/elements/1.1/"
   xmlns:cc="http://creativecommons.org/ns#"
   xmlns:rdf="http://www.w3.org/1999/02/22-rdf-syntax-ns#"
   xmlns:svg="http://www.w3.org/2000/svg"
   xmlns="http://www.w3.org/2000/svg"
   id="svg19"
   xml:space="preserve"
   viewBox="0 0 1024 768"
   y="0px"
   x="0px"
   version="1.1"><metadata
     id="metadata23"><rdf:RDF><cc:Work
         rdf:about=""><dc:format>image/svg+xml</dc:format><dc:type
           rdf:resource="http://purl.org/dc/dcmitype/StillImage" /></cc:Work></rdf:RDF></metadata><style
     id="style2">
#logo-fade{
opacity: 0;
animation: fadeIn 5s ease-in forwards infinite;
}

@keyframes fadeIn { 0% { opacity:0; } 30% { opacity:0; }60% { opacity:1; } 100% { opacity:1; } }

#outline{
opacity: 1;
stroke-dasharray: 2000;
stroke-dashoffset: 2000;
animation: dash 5s ease-in-out forwards infinite;
}

@keyframes dash {
  0% {
    opacity: 1;
    stroke-dashoffset: 2000;
  }
  60% {
    opacity: 1;
    stroke-dashoffset: 0;
  }
  100% {
    opacity: 1;
    stroke-dashoffset: 0;
  }
}
</style><defs
     id="defs7"><clipPath
       id="clip"><path
         id="path4"
         d="m374.68 322.9c-30.37 0-47.2 14.94-47.2 38.7v37.44c0 23.76 16.83 38.71 47.2 38.71 31.93 0 47.19-15.42 47.19-38.71l-31.46-3.14c0 8.33-5.04 13.37-15.73 13.37-10.07 0-15.74-4.88-15.74-13.37v-31.15c0-8.5 5.67-13.38 15.74-13.38 10.69 0 15.73 5.04 15.73 13.38l31.46-3.15c0-23.28-15.26-38.7-47.19-38.7zm304.37 0c-30.37 0-47.36 14.94-47.36 35.08 0 25.33 19.35 33.35 42.32 37.29 17.15 2.99 18.73 5.66 18.73 8.02 0 2.99-7.24 4.56-13.69 4.56-8.18 0-18.25-5.03-22.97-12.11l-27.38 15.42c10.23 15.57 28.64 26.59 51.14 26.59 26.11 0 47.51-8.81 47.51-36.82 0-23.91-19.83-30.68-44.53-35.87-15.73-3.3-19.66-5.35-19.66-7.87 0-2.83 2.99-4.4 12.27-4.4 12.43 0 17.31 4.4 21.87 9.28l27.06-16.05c-7.24-12.11-19.82-23.12-45.31-23.12zm-221.17 2.36l-36.19 110.13h31.47l25.64-85.43h1.42l-0.31 1.41c-2.52 11.33-4.72 20.61 1.73 42.48l12.42 41.54h31.47 29.95l25.65-85.43h1.41l-0.31 1.41c-2.52 11.33-4.72 20.61 1.73 42.48l12.43 41.54h31.47l-36.19-110.13h-31.46l-35.43 107.83-35.43-107.83h-31.47zm271.73 0v28.32h26.74v81.81h31.47v-81.81h26.74v-25.36l50.52 107.17 51.92-110.13h-64.5l14.79 47.98-22.66-47.98h-30.07-84.95zm-528.86 0.04c-70.6 0-89.46 0.03-89.82 0.12-0.25 0.06-0.64 0.19-0.88 0.3-0.23 0.1-0.6 0.31-0.81 0.46s-0.54 0.42-0.74 0.61c-0.19 0.2-0.5 0.59-0.69 0.88-0.19 0.28-0.44 0.77-0.55 1.08l-0.21 0.56-0.03 26.61c-0.02 19.39 0 26.76 0.07 27.16 0.06 0.29 0.25 0.83 0.42 1.19 0.19 0.41 0.52 0.89 0.86 1.25 0.3 0.32 0.78 0.72 1.06 0.89s0.77 0.4 1.1 0.51c0.51 0.18 0.85 0.21 2.81 0.28 1.23 0.03 2.73 0.11 3.34 0.17 0.62 0.05 1.75 0.18 2.52 0.28s2.04 0.3 2.81 0.45c0.78 0.14 2.14 0.44 3.03 0.67 0.89 0.22 2.14 0.57 2.79 0.77s1.58 0.51 2.08 0.69 1.39 0.52 1.98 0.75c0.6 0.24 1.6 0.67 2.22 0.95s1.72 0.82 2.44 1.19c0.72 0.38 1.86 1.02 2.53 1.42 0.67 0.39 1.75 1.07 2.39 1.5 0.65 0.44 1.67 1.15 2.26 1.6 0.6 0.44 1.57 1.21 2.17 1.71s1.6 1.37 2.22 1.95c0.62 0.57 1.65 1.59 2.27 2.25 0.63 0.67 1.43 1.55 1.78 1.96s0.94 1.12 1.31 1.58c0.36 0.46 0.98 1.28 1.38 1.83 0.4 0.54 0.97 1.36 1.27 1.81 0.3 0.44 0.85 1.32 1.22 1.94s1 1.71 1.38 2.43c0.39 0.71 0.97 1.87 1.29 2.57 0.32 0.71 0.8 1.82 1.07 2.48s0.71 1.85 0.98 2.63c0.27 0.79 0.67 2.1 0.9 2.91 0.22 0.82 0.51 1.93 0.63 2.48 0.13 0.54 0.33 1.54 0.45 2.21 0.13 0.67 0.29 1.69 0.37 2.26 0.07 0.57 0.2 1.69 0.28 2.48 0.07 0.79 0.16 2.27 0.18 3.3 0.03 1.02 0.09 2.13 0.15 2.46 0.05 0.37 0.23 0.9 0.44 1.35 0.27 0.54 0.52 0.89 0.98 1.35 0.47 0.47 0.81 0.71 1.38 0.99 0.52 0.25 0.97 0.39 1.49 0.47 0.58 0.08 0.93 0.08 1.54 0 0.53-0.07 0.93-0.08 1.2-0.02 0.25 0.05 23.01 0.08 59.14 0.08 50.75 0 58.82-0.01 59.35-0.13 0.34-0.07 0.89-0.26 1.22-0.42 0.41-0.2 0.82-0.5 1.24-0.93 0.35-0.35 0.77-0.87 0.93-1.15s0.37-0.83 0.47-1.22l0.18-0.71-0.02-55.61-0.03-55.62-0.21-0.56c-0.11-0.31-0.36-0.8-0.55-1.09-0.18-0.28-0.55-0.73-0.82-0.99-0.26-0.26-0.75-0.61-1.08-0.79-0.34-0.17-0.87-0.38-1.19-0.45-0.51-0.12-10.6-0.14-89.94-0.13zm-83.44 10.28l83.48 0.01h83.5v99.21h-109.3l-0.15-1.49c-0.09-0.82-0.27-2.15-0.39-2.96-0.13-0.81-0.35-2.08-0.5-2.82-0.15-0.75-0.49-2.21-0.75-3.26-0.27-1.04-0.7-2.53-0.94-3.3s-0.64-1.93-0.87-2.57c-0.24-0.65-0.67-1.75-0.95-2.44-0.29-0.7-0.82-1.9-1.17-2.67-0.36-0.77-1-2.05-1.43-2.84-0.42-0.8-1.13-2.06-1.58-2.8-0.45-0.75-1.18-1.91-1.63-2.58s-1.09-1.59-1.41-2.03c-0.33-0.45-0.94-1.26-1.36-1.81s-1.24-1.54-1.82-2.21c-0.57-0.68-1.56-1.77-2.19-2.44s-1.71-1.74-2.39-2.38c-0.68-0.65-1.65-1.53-2.14-1.96-0.5-0.43-1.46-1.22-2.13-1.75s-1.81-1.39-2.53-1.9c-0.72-0.52-1.98-1.37-2.81-1.89-0.83-0.53-2.17-1.33-2.98-1.79-0.82-0.45-1.96-1.06-2.55-1.36-0.59-0.29-1.66-0.8-2.39-1.13s-2-0.86-2.82-1.18-2.27-0.85-3.21-1.16-2.47-0.77-3.39-1.02-2.16-0.55-2.76-0.68c-0.59-0.13-1.64-0.34-2.32-0.46-0.69-0.13-1.99-0.33-2.89-0.45-0.91-0.12-2.01-0.25-2.44-0.28l-0.79-0.07v-41.54zm67.27 25.86c-0.45 0.01-1.02 0.07-1.26 0.13-0.24 0.07-0.71 0.26-1.04 0.42-0.41 0.2-0.81 0.5-1.28 0.97-0.44 0.44-0.77 0.88-0.94 1.23-0.14 0.3-0.32 0.73-0.39 0.95-0.08 0.25-0.15 0.95-0.17 1.76-0.02 0.75-0.1 5.17-0.16 9.83-0.1 6.97-0.1 9.97 0 16.94 0.06 4.66 0.14 9.08 0.16 9.83 0.02 0.81 0.09 1.51 0.17 1.76 0.07 0.22 0.25 0.65 0.39 0.95 0.17 0.35 0.5 0.79 0.94 1.23 0.52 0.52 0.85 0.76 1.36 1.01 0.37 0.17 0.91 0.37 1.19 0.43 0.31 0.07 0.85 0.09 1.4 0.06 0.61-0.03 1.05-0.11 1.43-0.25 0.29-0.11 4.36-2.33 9.03-4.92 4.68-2.6 10.31-5.8 12.52-7.11s5.84-3.46 8.07-4.78c2.23-1.31 4.23-2.54 4.46-2.72 0.22-0.19 0.56-0.53 0.76-0.77s0.48-0.68 0.62-0.98c0.14-0.29 0.31-0.76 0.37-1.03 0.07-0.28 0.12-0.81 0.12-1.18s-0.05-0.9-0.12-1.17c-0.06-0.28-0.23-0.75-0.37-1.04-0.14-0.3-0.42-0.74-0.62-0.99-0.2-0.24-0.55-0.58-0.76-0.75-0.22-0.18-4.03-2.48-8.47-5.11-5.66-3.35-10.52-6.14-16.26-9.32-4.49-2.5-8.43-4.68-8.74-4.83-0.31-0.16-0.79-0.35-1.08-0.42-0.29-0.08-0.87-0.13-1.33-0.13zm5.13 13.73l0.27 0.17c0.16 0.09 1.99 1.11 4.08 2.27s5.86 3.32 8.38 4.81 4.59 2.74 4.59 2.78-1.96 1.23-4.36 2.65c-2.4 1.41-6.3 3.65-8.66 4.96l-4.3 2.39-0.07-2.54c-0.03-1.39-0.06-4.75-0.06-7.46s0.03-6.07 0.06-7.48l0.07-2.55zm-77.87 22.63c-0.37 0.01-0.62 0.04-0.82 0.09-0.31 0.07-0.84 0.26-1.18 0.43-0.43 0.2-0.83 0.5-1.27 0.93-0.35 0.35-0.77 0.87-0.92 1.15-0.16 0.28-0.37 0.82-0.47 1.21s-0.18 0.97-0.18 1.3c0 0.32 0.06 0.85 0.14 1.17 0.07 0.32 0.29 0.87 0.47 1.22 0.19 0.36 0.57 0.88 0.88 1.19 0.3 0.3 0.81 0.7 1.13 0.88s0.83 0.39 1.13 0.47c0.35 0.09 1.23 0.17 2.44 0.22 1.04 0.05 2.4 0.15 3.02 0.23 0.63 0.08 1.64 0.24 2.26 0.37 0.63 0.12 1.57 0.34 2.1 0.49s1.4 0.42 1.94 0.6 1.59 0.59 2.34 0.9c0.74 0.32 1.82 0.84 2.39 1.15s1.46 0.83 1.97 1.15c0.52 0.32 1.39 0.92 1.94 1.34 0.56 0.41 1.35 1.04 1.77 1.39 0.41 0.35 1.22 1.11 1.79 1.68s1.43 1.51 1.91 2.08c0.49 0.58 1.17 1.46 1.52 1.95 0.36 0.5 0.92 1.35 1.25 1.9 0.34 0.55 0.88 1.54 1.22 2.21s0.78 1.61 0.98 2.08 0.53 1.35 0.74 1.95c0.2 0.59 0.51 1.61 0.68 2.25 0.17 0.65 0.39 1.61 0.49 2.15 0.1 0.53 0.25 1.49 0.32 2.12 0.08 0.64 0.18 1.99 0.23 3.01 0.05 1.27 0.12 2.01 0.23 2.35 0.08 0.27 0.27 0.74 0.43 1.04 0.16 0.29 0.55 0.81 0.88 1.14 0.45 0.45 0.8 0.7 1.37 0.97 0.54 0.26 0.98 0.41 1.5 0.48 0.57 0.08 0.91 0.08 1.48 0 0.55-0.08 0.96-0.21 1.52-0.48 0.57-0.28 0.92-0.54 1.36-0.99 0.4-0.41 0.71-0.82 0.93-1.27 0.18-0.37 0.39-0.97 0.47-1.34 0.12-0.55 0.13-0.99 0.09-2.26-0.04-0.87-0.12-2.18-0.19-2.9-0.08-0.72-0.22-1.83-0.33-2.48-0.1-0.65-0.3-1.72-0.45-2.39-0.15-0.68-0.37-1.59-0.49-2.04-0.13-0.44-0.39-1.32-0.59-1.94s-0.61-1.75-0.9-2.5c-0.3-0.75-0.9-2.09-1.34-2.98s-1.03-2.02-1.32-2.52c-0.29-0.49-0.86-1.43-1.28-2.07s-1.07-1.58-1.45-2.08-1.08-1.38-1.55-1.95c-0.48-0.57-1.42-1.6-2.09-2.29s-1.67-1.65-2.21-2.13c-0.55-0.48-1.45-1.23-1.99-1.67-0.55-0.43-1.65-1.23-2.45-1.77s-1.96-1.27-2.58-1.62c-0.61-0.36-1.77-0.97-2.56-1.36-0.8-0.39-2.12-0.97-2.94-1.29-0.82-0.33-1.94-0.74-2.5-0.91-0.55-0.18-1.55-0.47-2.21-0.64-0.67-0.17-1.59-0.4-2.07-0.5-0.47-0.1-1.37-0.26-2-0.37-0.63-0.1-1.7-0.24-2.39-0.31s-2.07-0.16-3.06-0.18c-0.68-0.02-1.17-0.02-1.53-0.01zm-0.22 19.7c-0.34 0.02-0.57 0.05-0.77 0.1-0.29 0.07-0.8 0.28-1.13 0.45-0.33 0.18-0.82 0.52-1.08 0.77s-0.63 0.69-0.82 1c-0.2 0.3-0.45 0.82-0.57 1.15-0.16 0.49-0.2 0.79-0.2 1.6 0 0.8 0.04 1.11 0.2 1.59 0.12 0.34 0.37 0.85 0.56 1.13 0.19 0.29 0.45 0.63 0.57 0.76 0.13 0.13 0.41 0.39 0.63 0.57s0.66 0.45 0.98 0.59 0.8 0.3 1.07 0.35c0.28 0.06 0.96 0.12 1.51 0.15 0.56 0.03 1.38 0.12 1.81 0.19 0.44 0.08 1.21 0.28 1.72 0.45 0.5 0.17 1.17 0.44 1.49 0.59 0.31 0.16 0.89 0.5 1.29 0.76s1.01 0.71 1.35 1.01c0.34 0.29 0.94 0.9 1.31 1.36 0.38 0.45 0.88 1.15 1.12 1.55 0.24 0.41 0.59 1.12 0.79 1.59 0.19 0.46 0.46 1.27 0.58 1.78 0.14 0.58 0.27 1.46 0.33 2.29 0.05 0.75 0.15 1.62 0.23 1.94 0.07 0.33 0.27 0.86 0.45 1.19 0.17 0.33 0.52 0.81 0.78 1.08 0.26 0.26 0.71 0.63 1.01 0.82 0.29 0.2 0.8 0.44 1.13 0.54 0.32 0.1 0.9 0.21 1.28 0.23 0.48 0.04 0.89 0.01 1.38-0.1 0.37-0.08 0.97-0.3 1.32-0.47 0.41-0.2 0.84-0.53 1.21-0.9 0.4-0.39 0.7-0.8 0.94-1.3 0.2-0.39 0.41-0.95 0.47-1.24 0.08-0.35 0.1-1.04 0.06-2.1-0.03-1.02-0.11-1.98-0.24-2.7-0.11-0.62-0.34-1.62-0.5-2.24-0.17-0.62-0.5-1.6-0.73-2.18-0.22-0.58-0.67-1.57-1-2.19-0.32-0.62-0.86-1.53-1.18-2.03-0.33-0.49-0.92-1.29-1.3-1.77-0.39-0.48-1.12-1.29-1.63-1.79-0.5-0.51-1.31-1.24-1.79-1.63-0.49-0.39-1.29-0.98-1.8-1.31-0.5-0.33-1.37-0.84-1.93-1.14-0.56-0.29-1.48-0.72-2.06-0.95-0.57-0.23-1.52-0.56-2.12-0.73s-1.67-0.42-2.39-0.55c-0.97-0.16-1.74-0.23-2.94-0.26-0.62-0.01-1.06-0.02-1.39 0z" /></clipPath></defs><path
     stroke-linecap="round"
     stroke-linejoin="round"
     fill-rule="nonzero"
     stroke-width="50"
     stroke="#1395f0"
     fill="none"
     clip-path="url(#clip)"
     d="m374.68 322.9c-30.37 0-47.2 14.94-47.2 38.7v37.44c0 23.76 16.83 38.71 47.2 38.71 31.93 0 47.19-15.42 47.19-38.71l-31.46-3.14c0 8.33-5.04 13.37-15.73 13.37-10.07 0-15.74-4.88-15.74-13.37v-31.15c0-8.5 5.67-13.38 15.74-13.38 10.69 0 15.73 5.04 15.73 13.38l31.46-3.15c0-23.28-15.26-38.7-47.19-38.7zm304.37 0c-30.37 0-47.36 14.94-47.36 35.08 0 25.33 19.35 33.35 42.32 37.29 17.15 2.99 18.73 5.66 18.73 8.02 0 2.99-7.24 4.56-13.69 4.56-8.18 0-18.25-5.03-22.97-12.11l-27.38 15.42c10.23 15.57 28.64 26.59 51.14 26.59 26.11 0 47.51-8.81 47.51-36.82 0-23.91-19.83-30.68-44.53-35.87-15.73-3.3-19.66-5.35-19.66-7.87 0-2.83 2.99-4.4 12.27-4.4 12.43 0 17.31 4.4 21.87 9.28l27.06-16.05c-7.24-12.11-19.82-23.12-45.31-23.12zm-221.17 2.36l-36.19 110.13h31.47l25.64-85.43h1.42l-0.31 1.41c-2.52 11.33-4.72 20.61 1.73 42.48l12.42 41.54h31.47 29.95l25.65-85.43h1.41l-0.31 1.41c-2.52 11.33-4.72 20.61 1.73 42.48l12.43 41.54h31.47l-36.19-110.13h-31.46l-35.43 107.83-35.43-107.83h-31.47zm271.73 0v28.32h26.74v81.81h31.47v-81.81h26.74v-25.36l50.52 107.17 51.92-110.13h-64.5l14.79 47.98-22.66-47.98h-30.07-84.95zm-528.86 0.04c-70.6 0-89.46 0.03-89.82 0.12-0.25 0.06-0.64 0.19-0.88 0.3-0.23 0.1-0.6 0.31-0.81 0.46s-0.54 0.42-0.74 0.61c-0.19 0.2-0.5 0.59-0.69 0.88-0.19 0.28-0.44 0.77-0.55 1.08l-0.21 0.56-0.03 26.61c-0.02 19.39 0 26.76 0.07 27.16 0.06 0.29 0.25 0.83 0.42 1.19 0.19 0.41 0.52 0.89 0.86 1.25 0.3 0.32 0.78 0.72 1.06 0.89s0.77 0.4 1.1 0.51c0.51 0.18 0.85 0.21 2.81 0.28 1.23 0.03 2.73 0.11 3.34 0.17 0.62 0.05 1.75 0.18 2.52 0.28s2.04 0.3 2.81 0.45c0.78 0.14 2.14 0.44 3.03 0.67 0.89 0.22 2.14 0.57 2.79 0.77s1.58 0.51 2.08 0.69 1.39 0.52 1.98 0.75c0.6 0.24 1.6 0.67 2.22 0.95s1.72 0.82 2.44 1.19c0.72 0.38 1.86 1.02 2.53 1.42 0.67 0.39 1.75 1.07 2.39 1.5 0.65 0.44 1.67 1.15 2.26 1.6 0.6 0.44 1.57 1.21 2.17 1.71s1.6 1.37 2.22 1.95c0.62 0.57 1.65 1.59 2.27 2.25 0.63 0.67 1.43 1.55 1.78 1.96s0.94 1.12 1.31 1.58c0.36 0.46 0.98 1.28 1.38 1.83 0.4 0.54 0.97 1.36 1.27 1.81 0.3 0.44 0.85 1.32 1.22 1.94s1 1.71 1.38 2.43c0.39 0.71 0.97 1.87 1.29 2.57 0.32 0.71 0.8 1.82 1.07 2.48s0.71 1.85 0.98 2.63c0.27 0.79 0.67 2.1 0.9 2.91 0.22 0.82 0.51 1.93 0.63 2.48 0.13 0.54 0.33 1.54 0.45 2.21 0.13 0.67 0.29 1.69 0.37 2.26 0.07 0.57 0.2 1.69 0.28 2.48 0.07 0.79 0.16 2.27 0.18 3.3 0.03 1.02 0.09 2.13 0.15 2.46 0.05 0.37 0.23 0.9 0.44 1.35 0.27 0.54 0.52 0.89 0.98 1.35 0.47 0.47 0.81 0.71 1.38 0.99 0.52 0.25 0.97 0.39 1.49 0.47 0.58 0.08 0.93 0.08 1.54 0 0.53-0.07 0.93-0.08 1.2-0.02 0.25 0.05 23.01 0.08 59.14 0.08 50.75 0 58.82-0.01 59.35-0.13 0.34-0.07 0.89-0.26 1.22-0.42 0.41-0.2 0.82-0.5 1.24-0.93 0.35-0.35 0.77-0.87 0.93-1.15s0.37-0.83 0.47-1.22l0.18-0.71-0.02-55.61-0.03-55.62-0.21-0.56c-0.11-0.31-0.36-0.8-0.55-1.09-0.18-0.28-0.55-0.73-0.82-0.99-0.26-0.26-0.75-0.61-1.08-0.79-0.34-0.17-0.87-0.38-1.19-0.45-0.51-0.12-10.6-0.14-89.94-0.13zm-83.44 10.28l83.48 0.01h83.5v99.21h-109.3l-0.15-1.49c-0.09-0.82-0.27-2.15-0.39-2.96-0.13-0.81-0.35-2.08-0.5-2.82-0.15-0.75-0.49-2.21-0.75-3.26-0.27-1.04-0.7-2.53-0.94-3.3s-0.64-1.93-0.87-2.57c-0.24-0.65-0.67-1.75-0.95-2.44-0.29-0.7-0.82-1.9-1.17-2.67-0.36-0.77-1-2.05-1.43-2.84-0.42-0.8-1.13-2.06-1.58-2.8-0.45-0.75-1.18-1.91-1.63-2.58s-1.09-1.59-1.41-2.03c-0.33-0.45-0.94-1.26-1.36-1.81s-1.24-1.54-1.82-2.21c-0.57-0.68-1.56-1.77-2.19-2.44s-1.71-1.74-2.39-2.38c-0.68-0.65-1.65-1.53-2.14-1.96-0.5-0.43-1.46-1.22-2.13-1.75s-1.81-1.39-2.53-1.9c-0.72-0.52-1.98-1.37-2.81-1.89-0.83-0.53-2.17-1.33-2.98-1.79-0.82-0.45-1.96-1.06-2.55-1.36-0.59-0.29-1.66-0.8-2.39-1.13s-2-0.86-2.82-1.18-2.27-0.85-3.21-1.16-2.47-0.77-3.39-1.02-2.16-0.55-2.76-0.68c-0.59-0.13-1.64-0.34-2.32-0.46-0.69-0.13-1.99-0.33-2.89-0.45-0.91-0.12-2.01-0.25-2.44-0.28l-0.79-0.07v-41.54zm67.27 25.86c-0.45 0.01-1.02 0.07-1.26 0.13-0.24 0.07-0.71 0.26-1.04 0.42-0.41 0.2-0.81 0.5-1.28 0.97-0.44 0.44-0.77 0.88-0.94 1.23-0.14 0.3-0.32 0.73-0.39 0.95-0.08 0.25-0.15 0.95-0.17 1.76-0.02 0.75-0.1 5.17-0.16 9.83-0.1 6.97-0.1 9.97 0 16.94 0.06 4.66 0.14 9.08 0.16 9.83 0.02 0.81 0.09 1.51 0.17 1.76 0.07 0.22 0.25 0.65 0.39 0.95 0.17 0.35 0.5 0.79 0.94 1.23 0.52 0.52 0.85 0.76 1.36 1.01 0.37 0.17 0.91 0.37 1.19 0.43 0.31 0.07 0.85 0.09 1.4 0.06 0.61-0.03 1.05-0.11 1.43-0.25 0.29-0.11 4.36-2.33 9.03-4.92 4.68-2.6 10.31-5.8 12.52-7.11s5.84-3.46 8.07-4.78c2.23-1.31 4.23-2.54 4.46-2.72 0.22-0.19 0.56-0.53 0.76-0.77s0.48-0.68 0.62-0.98c0.14-0.29 0.31-0.76 0.37-1.03 0.07-0.28 0.12-0.81 0.12-1.18s-0.05-0.9-0.12-1.17c-0.06-0.28-0.23-0.75-0.37-1.04-0.14-0.3-0.42-0.74-0.62-0.99-0.2-0.24-0.55-0.58-0.76-0.75-0.22-0.18-4.03-2.48-8.47-5.11-5.66-3.35-10.52-6.14-16.26-9.32-4.49-2.5-8.43-4.68-8.74-4.83-0.31-0.16-0.79-0.35-1.08-0.42-0.29-0.08-0.87-0.13-1.33-0.13zm5.13 13.73l0.27 0.17c0.16 0.09 1.99 1.11 4.08 2.27s5.86 3.32 8.38 4.81 4.59 2.74 4.59 2.78-1.96 1.23-4.36 2.65c-2.4 1.41-6.3 3.65-8.66 4.96l-4.3 2.39-0.07-2.54c-0.03-1.39-0.06-4.75-0.06-7.46s0.03-6.07 0.06-7.48l0.07-2.55zm-77.87 22.63c-0.37 0.01-0.62 0.04-0.82 0.09-0.31 0.07-0.84 0.26-1.18 0.43-0.43 0.2-0.83 0.5-1.27 0.93-0.35 0.35-0.77 0.87-0.92 1.15-0.16 0.28-0.37 0.82-0.47 1.21s-0.18 0.97-0.18 1.3c0 0.32 0.06 0.85 0.14 1.17 0.07 0.32 0.29 0.87 0.47 1.22 0.19 0.36 0.57 0.88 0.88 1.19 0.3 0.3 0.81 0.7 1.13 0.88s0.83 0.39 1.13 0.47c0.35 0.09 1.23 0.17 2.44 0.22 1.04 0.05 2.4 0.15 3.02 0.23 0.63 0.08 1.64 0.24 2.26 0.37 0.63 0.12 1.57 0.34 2.1 0.49s1.4 0.42 1.94 0.6 1.59 0.59 2.34 0.9c0.74 0.32 1.82 0.84 2.39 1.15s1.46 0.83 1.97 1.15c0.52 0.32 1.39 0.92 1.94 1.34 0.56 0.41 1.35 1.04 1.77 1.39 0.41 0.35 1.22 1.11 1.79 1.68s1.43 1.51 1.91 2.08c0.49 0.58 1.17 1.46 1.52 1.95 0.36 0.5 0.92 1.35 1.25 1.9 0.34 0.55 0.88 1.54 1.22 2.21s0.78 1.61 0.98 2.08 0.53 1.35 0.74 1.95c0.2 0.59 0.51 1.61 0.68 2.25 0.17 0.65 0.39 1.61 0.49 2.15 0.1 0.53 0.25 1.49 0.32 2.12 0.08 0.64 0.18 1.99 0.23 3.01 0.05 1.27 0.12 2.01 0.23 2.35 0.08 0.27 0.27 0.74 0.43 1.04 0.16 0.29 0.55 0.81 0.88 1.14 0.45 0.45 0.8 0.7 1.37 0.97 0.54 0.26 0.98 0.41 1.5 0.48 0.57 0.08 0.91 0.08 1.48 0 0.55-0.08 0.96-0.21 1.52-0.48 0.57-0.28 0.92-0.54 1.36-0.99 0.4-0.41 0.71-0.82 0.93-1.27 0.18-0.37 0.39-0.97 0.47-1.34 0.12-0.55 0.13-0.99 0.09-2.26-0.04-0.87-0.12-2.18-0.19-2.9-0.08-0.72-0.22-1.83-0.33-2.48-0.1-0.65-0.3-1.72-0.45-2.39-0.15-0.68-0.37-1.59-0.49-2.04-0.13-0.44-0.39-1.32-0.59-1.94s-0.61-1.75-0.9-2.5c-0.3-0.75-0.9-2.09-1.34-2.98s-1.03-2.02-1.32-2.52c-0.29-0.49-0.86-1.43-1.28-2.07s-1.07-1.58-1.45-2.08-1.08-1.38-1.55-1.95c-0.48-0.57-1.42-1.6-2.09-2.29s-1.67-1.65-2.21-2.13c-0.55-0.48-1.45-1.23-1.99-1.67-0.55-0.43-1.65-1.23-2.45-1.77s-1.96-1.27-2.58-1.62c-0.61-0.36-1.77-0.97-2.56-1.36-0.8-0.39-2.12-0.97-2.94-1.29-0.82-0.33-1.94-0.74-2.5-0.91-0.55-0.18-1.55-0.47-2.21-0.64-0.67-0.17-1.59-0.4-2.07-0.5-0.47-0.1-1.37-0.26-2-0.37-0.63-0.1-1.7-0.24-2.39-0.31s-2.07-0.16-3.06-0.18c-0.68-0.02-1.17-0.02-1.53-0.01zm-0.22 19.7c-0.34 0.02-0.57 0.05-0.77 0.1-0.29 0.07-0.8 0.28-1.13 0.45-0.33 0.18-0.82 0.52-1.08 0.77s-0.63 0.69-0.82 1c-0.2 0.3-0.45 0.82-0.57 1.15-0.16 0.49-0.2 0.79-0.2 1.6 0 0.8 0.04 1.11 0.2 1.59 0.12 0.34 0.37 0.85 0.56 1.13 0.19 0.29 0.45 0.63 0.57 0.76 0.13 0.13 0.41 0.39 0.63 0.57s0.66 0.45 0.98 0.59 0.8 0.3 1.07 0.35c0.28 0.06 0.96 0.12 1.51 0.15 0.56 0.03 1.38 0.12 1.81 0.19 0.44 0.08 1.21 0.28 1.72 0.45 0.5 0.17 1.17 0.44 1.49 0.59 0.31 0.16 0.89 0.5 1.29 0.76s1.01 0.71 1.35 1.01c0.34 0.29 0.94 0.9 1.31 1.36 0.38 0.45 0.88 1.15 1.12 1.55 0.24 0.41 0.59 1.12 0.79 1.59 0.19 0.46 0.46 1.27 0.58 1.78 0.14 0.58 0.27 1.46 0.33 2.29 0.05 0.75 0.15 1.62 0.23 1.94 0.07 0.33 0.27 0.86 0.45 1.19 0.17 0.33 0.52 0.81 0.78 1.08 0.26 0.26 0.71 0.63 1.01 0.82 0.29 0.2 0.8 0.44 1.13 0.54 0.32 0.1 0.9 0.21 1.28 0.23 0.48 0.04 0.89 0.01 1.38-0.1 0.37-0.08 0.97-0.3 1.32-0.47 0.41-0.2 0.84-0.53 1.21-0.9 0.4-0.39 0.7-0.8 0.94-1.3 0.2-0.39 0.41-0.95 0.47-1.24 0.08-0.35 0.1-1.04 0.06-2.1-0.03-1.02-0.11-1.98-0.24-2.7-0.11-0.62-0.34-1.62-0.5-2.24-0.17-0.62-0.5-1.6-0.73-2.18-0.22-0.58-0.67-1.57-1-2.19-0.32-0.62-0.86-1.53-1.18-2.03-0.33-0.49-0.92-1.29-1.3-1.77-0.39-0.48-1.12-1.29-1.63-1.79-0.5-0.51-1.31-1.24-1.79-1.63-0.49-0.39-1.29-0.98-1.8-1.31-0.5-0.33-1.37-0.84-1.93-1.14-0.56-0.29-1.48-0.72-2.06-0.95-0.57-0.23-1.52-0.56-2.12-0.73s-1.67-0.42-2.39-0.55c-0.97-0.16-1.74-0.23-2.94-0.26-0.62-0.01-1.06-0.02-1.39 0z"
     id="outline" /><g
     style="opacity:0"
     id="logo-fade"><g
       transform="matrix(0.91046,0,0,0.91046,4.9306,30.703)"
       id="logo-group"><path
         stroke-miterlimit="2"
         d="m 406.11,447.07 c 35.078,0 51.84,-16.934 51.84,-42.509 l -34.56,-3.456 c 0,9.1584 -5.5296,14.688 -17.28,14.688 -11.059,0 -17.28,-5.3568 -17.28,-14.688 v -34.214 c 0,-9.3312 6.2208,-14.688 17.28,-14.688 11.75,0 17.28,5.5296 17.28,14.688 l 34.56,-3.456 c 0,-25.574 -16.762,-42.509 -51.84,-42.509 -33.35,0 -51.84,16.416 -51.84,42.509 v 41.126 c 0,26.093 18.49,42.509 51.84,42.509 z"
         style="font-variant-ligatures:normal;fill:#1395f0;stroke-width:0;stroke-miterlimit:2"
         id="path422338" /><path
         stroke-miterlimit="2"
         d="m 523.59,398.86 13.651,45.619 h 34.56 l -39.744,-120.96 h -34.56 l -39.744,120.96 h 34.56 l 28.166,-93.83 h 1.5552 l -0.3456,1.5552 c -2.7648,12.442 -5.184,22.637 1.9008,46.656 z"
         style="font-variant-ligatures:normal;fill:#17aae4;stroke-width:0;stroke-miterlimit:2"
         id="path422340" /><path
         stroke-miterlimit="2"
         d="m 635.97,398.86 13.651,45.619 h 34.56 l -39.744,-120.96 h -34.56 l -39.744,120.96 h 34.56 l 28.166,-93.83 h 1.5552 l -0.3456,1.5552 c -2.7648,12.442 -5.184,22.637 1.9008,46.656 z"
         style="font-variant-ligatures:normal;fill:#1abfd9;stroke-width:0;stroke-miterlimit:2"
         id="path422342" /><path
         stroke-miterlimit="2"
         d="m 740.41,414.24 c -8.9856,0 -20.045,-5.5296 -25.229,-13.306 l -30.067,16.934 c 11.232,17.107 31.45,29.203 56.16,29.203 28.685,0 52.186,-9.6768 52.186,-40.435 0,-26.266 -21.773,-33.696 -48.902,-39.398 -17.28,-3.6288 -21.6,-5.8752 -21.6,-8.64 0,-3.1104 3.2832,-4.8384 13.478,-4.8384 13.651,0 19.008,4.8384 24.019,10.195 l 29.722,-17.626 c -7.9488,-13.306 -21.773,-25.402 -49.766,-25.402 -33.35,0 -52.013,16.416 -52.013,38.534 0,27.821 21.254,36.634 46.483,40.954 18.835,3.2832 20.563,6.2208 20.563,8.8128 0,3.2832 -7.9488,5.0112 -15.034,5.0112 z"
         style="font-variant-ligatures:normal;fill:#1ed5cd;stroke-width:0;stroke-miterlimit:2"
         id="path422344" /><path
         stroke-miterlimit="2"
         d="m 825.32,354.62 v 89.856 h 34.56 V 354.62 h 29.376 v -31.1 h -93.312 v 31.104 z"
         style="font-variant-ligatures:normal;fill:#21eac2;stroke-width:0;stroke-miterlimit:2"
         id="path422346" /><path
         stroke-miterlimit="2"
         d="m 930.92,323.52 16.243,52.704 -24.883,-52.704 h -34.56 l 57.024,120.96 57.024,-120.96 z"
         style="font-variant-ligatures:normal;fill:#25ffb6;stroke-width:0;stroke-miterlimit:2"
         id="path422348" /><path
         style="fill:#069aff;stroke-width:1.78499997"
         d="m 215.07,323.57 c -77.54,0.006 -98.259,0.0328 -98.65,0.13002 -0.27293,0.0665 -0.70663,0.21636 -0.96467,0.33148 -0.25704,0.11513 -0.65898,0.3414 -0.89321,0.50317 -0.23323,0.16178 -0.59846,0.46646 -0.81084,0.67686 -0.21238,0.21039 -0.55478,0.64113 -0.76121,0.95672 -0.20644,0.31461 -0.47836,0.85054 -0.6064,1.191 l -0.23027,0.61583 -0.0286,29.229 c -0.0218,21.293 0.001,29.39 0.0814,29.824 0.0615,0.32751 0.26599,0.92001 0.45554,1.316 0.21039,0.44165 0.57662,0.96865 0.94581,1.3636 0.33148,0.35431 0.85452,0.79695 1.1622,0.98354 0.30766,0.18657 0.85054,0.43866 1.2048,0.56074 0.5667,0.19551 0.94284,0.23223 3.0925,0.3007 1.3458,0.0427 2.9983,0.12709 3.6721,0.18659 0.67388,0.0605 1.9174,0.19949 2.763,0.31064 0.84657,0.11121 2.237,0.33347 3.0914,0.49227 0.85451,0.15976 2.3501,0.49127 3.3247,0.7364 0.97459,0.24413 2.3521,0.62623 3.0618,0.84855 0.70961,0.22133 1.7368,0.56272 2.2827,0.75824 0.54585,0.19452 1.5284,0.56868 2.1834,0.8297 0.65502,0.26102 1.7497,0.72748 2.4315,1.0361 0.68281,0.30866 1.8887,0.90016 2.6796,1.315 0.79099,0.41485 2.0424,1.1116 2.7789,1.5482 0.7374,0.43768 1.9205,1.184 2.63,1.6574 0.7096,0.47439 1.826,1.2624 2.4812,1.7517 0.65502,0.48828 1.7269,1.3349 2.3819,1.8807 0.65502,0.54586 1.7517,1.5085 2.4365,2.1397 0.68479,0.6312 1.8082,1.7448 2.496,2.4753 0.68778,0.73046 1.5671,1.6971 1.9532,2.1477 0.38706,0.45057 1.0322,1.2316 1.4341,1.7368 0.40195,0.50415 1.0867,1.4083 1.5224,2.0087 0.4347,0.60044 1.0609,1.4936 1.3894,1.9849 0.32949,0.49127 0.93391,1.451 1.3448,2.1338 0.40989,0.68182 1.0917,1.8826 1.5145,2.6688 0.42279,0.78505 1.059,2.0585 1.4132,2.8285 0.35431,0.77016 0.88429,1.9938 1.178,2.7193 0.29377,0.7265 0.7771,2.0276 1.0748,2.893 0.29673,0.86444 0.74236,2.3025 0.98947,3.1957 0.24614,0.89321 0.55974,2.1149 0.69671,2.7153 0.13596,0.60044 0.35828,1.6941 0.49325,2.4315 0.13498,0.7364 0.3146,1.8528 0.39996,2.4812 0.0854,0.62723 0.22331,1.8539 0.30568,2.7243 0.0834,0.87139 0.17566,2.501 0.20544,3.6225 0.0308,1.1215 0.10123,2.3401 0.15779,2.7075 0.0615,0.40493 0.25606,0.98848 0.49227,1.4768 0.28881,0.59646 0.57066,0.9875 1.0729,1.4897 0.51111,0.51211 0.88725,0.78106 1.5105,1.0798 0.58059,0.27788 1.0738,0.43272 1.6445,0.51608 0.62723,0.0914 1.0143,0.0914 1.6872,0.002 0.58159,-0.0784 1.0212,-0.0864 1.319,-0.0237 0.27491,0.0566 25.276,0.0934 64.956,0.0953 55.737,0.002 64.601,-0.0161 65.185,-0.13995 0.37019,-0.0784 0.97261,-0.28881 1.3398,-0.46645 0.44661,-0.21636 0.8972,-0.5528 1.3676,-1.0212 0.38508,-0.38408 0.84459,-0.95177 1.0192,-1.2614 0.17564,-0.30964 0.40791,-0.91208 0.5151,-1.3398 l 0.19651,-0.7771 -0.0248,-61.086 -0.0259,-61.086 -0.23124,-0.61731 c -0.12799,-0.34041 -0.39897,-0.87634 -0.60342,-1.191 -0.20444,-0.3156 -0.60936,-0.80587 -0.90016,-1.0907 -0.29079,-0.28385 -0.8277,-0.67387 -1.1939,-0.86542 -0.36521,-0.19253 -0.94978,-0.41683 -1.2991,-0.49921 -0.56373,-0.13298 -11.644,-0.14887 -98.789,-0.1429 z m 0.0496,11.304 h 91.703 v 108.97 h -120.03 l -0.17368,-1.6326 c -0.0953,-0.89818 -0.28681,-2.3601 -0.42477,-3.2503 -0.13795,-0.88925 -0.38408,-2.2877 -0.54686,-3.1064 -0.16275,-0.81878 -0.53692,-2.4265 -0.83168,-3.5728 -0.29576,-1.1463 -0.75725,-2.7769 -1.0262,-3.6225 -0.26796,-0.84657 -0.69968,-2.119 -0.95772,-2.8285 -0.25904,-0.70961 -0.72846,-1.9164 -1.0441,-2.6827 -0.31658,-0.76517 -0.89519,-2.0822 -1.2872,-2.9278 -0.39103,-0.84457 -1.0947,-2.2498 -1.5621,-3.1232 -0.46745,-0.87336 -1.2515,-2.2568 -1.7428,-3.0747 -0.49026,-0.8168 -1.2952,-2.0901 -1.7895,-2.8285 -0.49325,-0.7374 -1.189,-1.7438 -1.5472,-2.235 -0.35728,-0.49127 -1.0302,-1.3845 -1.4946,-1.9849 -0.46447,-0.60044 -1.3616,-1.6951 -1.9928,-2.4315 -0.6322,-0.7374 -1.716,-1.9403 -2.4087,-2.6746 -0.69274,-0.73442 -1.8728,-1.9135 -2.6241,-2.62 -0.75031,-0.70564 -1.8112,-1.6713 -2.3571,-2.1457 -0.54586,-0.4744 -1.5949,-1.3408 -2.3323,-1.9253 -0.7364,-0.58555 -1.988,-1.5254 -2.7789,-2.0892 -0.79099,-0.56372 -2.1823,-1.4986 -3.0895,-2.0772 -0.9081,-0.57861 -2.3819,-1.4599 -3.2751,-1.9582 -0.89421,-0.49921 -2.1516,-1.1721 -2.7967,-1.4946 -0.64409,-0.32355 -1.8271,-0.88329 -2.63,-1.2426 -0.80147,-0.36235 -2.1938,-0.94426 -3.0952,-1.2995 -0.89964,-0.35343 -2.4865,-0.92641 -3.5236,-1.2709 -1.0371,-0.34538 -2.7134,-0.84955 -3.7237,-1.1195 -1.0113,-0.26994 -2.374,-0.6064 -3.027,-0.7483 -0.65402,-0.14093 -1.8043,-0.36919 -2.5566,-0.50616 -0.75229,-0.13794 -2.1814,-0.35926 -3.1759,-0.49325 -0.99425,-0.13566 -2.1991,-0.27489 -2.6775,-0.31237 l -0.8684,-0.0695 v -45.625 z m -17.811,28.394 c -0.49325,0.005 -1.1155,0.0685 -1.3825,0.14192 -0.26696,0.0734 -0.78106,0.27789 -1.1413,0.45455 -0.45157,0.22033 -0.88825,0.55478 -1.4024,1.0729 -0.48234,0.48531 -0.84955,0.96467 -1.0341,1.3488 -0.15779,0.32751 -0.35034,0.79595 -0.42973,1.0421 -0.0854,0.26896 -0.16078,1.0391 -0.18757,1.9353 -0.0248,0.81878 -0.10421,5.6759 -0.17566,10.793 -0.10619,7.6548 -0.10619,10.954 0,18.609 0.0714,5.1171 0.15085,9.9742 0.17566,10.793 0.0268,0.89619 0.10222,1.6663 0.18757,1.9353 0.0794,0.24514 0.27192,0.71457 0.42973,1.0421 0.18461,0.38309 0.5538,0.86542 1.0341,1.3497 0.56471,0.57167 0.92695,0.84061 1.4907,1.1076 0.40988,0.19452 0.99742,0.40789 1.3061,0.47539 0.34438,0.0744 0.93887,0.10228 1.5383,0.0705 0.67588,-0.0348 1.1582,-0.12013 1.5681,-0.2769 0.32453,-0.12406 4.7906,-2.5586 9.9246,-5.41 5.133,-2.8524 11.321,-6.3637 13.75,-7.8037 2.4296,-1.441 6.4162,-3.8012 8.8616,-5.2461 2.4444,-1.445 4.6467,-2.7928 4.8929,-2.9942 0.24614,-0.20245 0.62625,-0.58159 0.84459,-0.84359 0.21735,-0.262 0.52303,-0.74435 0.67786,-1.0719 0.15476,-0.32751 0.34042,-0.84161 0.41187,-1.1413 0.0725,-0.30072 0.13102,-0.8813 0.13102,-1.2902 0,-0.40989 -0.0585,-0.99048 -0.13102,-1.2902 -0.0714,-0.30072 -0.25706,-0.81382 -0.41187,-1.1413 -0.15476,-0.32751 -0.4625,-0.81282 -0.68382,-1.0788 -0.2213,-0.26598 -0.59646,-0.64014 -0.83266,-0.83169 -0.2372,-0.19253 -4.4234,-2.7144 -9.3043,-5.6054 -6.2188,-3.6841 -11.559,-6.7477 -17.854,-10.244 -4.9394,-2.7441 -9.2606,-5.1301 -9.601,-5.3018 -0.3414,-0.1717 -0.87534,-0.37912 -1.187,-0.4605 -0.31956,-0.0834 -0.9607,-0.14391 -1.4649,-0.13894 z m 5.94,15.263 c 0.16972,0.10222 2.1845,1.2237 4.477,2.4931 2.2926,1.2704 6.4351,3.6484 9.2051,5.2848 2.77,1.6376 5.0367,3.0111 5.0367,3.0529 0,0.0407 -2.1547,1.3488 -4.7886,2.906 -2.634,1.5562 -6.9146,4.0105 -9.5137,5.4546 l -4.7251,2.6241 -0.0705,-2.7889 c -0.0387,-1.5334 -0.0705,-5.2224 -0.0705,-8.1967 0,-2.9754 0.0317,-6.6704 0.0705,-8.2115 l 0.0714,-2.8037 z m -84.15,24.679 c -1.4956,-0.0377 -2.1327,-0.0161 -2.5863,0.0883 -0.33148,0.0764 -0.91207,0.28882 -1.2902,0.47142 -0.46844,0.22629 -0.91407,0.55478 -1.3904,1.0272 -0.38705,0.3821 -0.84557,0.9468 -1.0192,1.2555 -0.17368,0.30766 -0.40493,0.9071 -0.5131,1.3309 -0.10917,0.42377 -0.19651,1.0649 -0.19651,1.4242 9.9e-4,0.35926 0.0695,0.93985 0.15185,1.2892 0.0824,0.34934 0.31561,0.95176 0.51906,1.3388 0.20942,0.39798 0.62922,0.96666 0.96567,1.3091 0.32751,0.33248 0.88627,0.76518 1.2406,0.96269 0.3553,0.19749 0.91406,0.43072 1.2406,0.51806 0.3811,0.10121 1.3458,0.19055 2.6796,0.24613 1.1463,0.0486 2.6429,0.15976 3.3247,0.24812 0.68282,0.0884 1.7993,0.27094 2.4812,0.40691 0.68282,0.13691 1.717,0.37911 2.2996,0.53989 0.58257,0.16083 1.5433,0.45555 2.1338,0.65404 0.59151,0.19849 1.7448,0.64708 2.5634,0.99742 0.81878,0.34934 2.0028,0.91603 2.63,1.2594 0.62823,0.34339 1.6028,0.91108 2.1664,1.2624 0.5647,0.35134 1.5244,1.0113 2.1338,1.4679 0.61036,0.45553 1.4808,1.1453 1.9353,1.5304 0.45553,0.38606 1.3408,1.2158 1.968,1.843 0.62723,0.62723 1.573,1.6574 2.1031,2.2896 0.52996,0.6322 1.2813,1.5959 1.6713,2.1416 0.38904,0.54585 1.0064,1.4837 1.3716,2.0842 0.36423,0.60044 0.96566,1.6941 1.3359,2.4315 0.37019,0.7364 0.85351,1.7636 1.0738,2.2827 0.22033,0.51806 0.58555,1.4788 0.81184,2.1338 0.22628,0.65502 0.56272,1.7715 0.74831,2.4812 0.1846,0.7096 0.42775,1.7696 0.53891,2.356 0.11115,0.58555 0.27292,1.6356 0.35828,2.3323 0.0863,0.69672 0.19551,2.1814 0.24315,3.301 0.0586,1.3954 0.13697,2.2063 0.2511,2.5804 0.0903,0.30071 0.30568,0.81381 0.47836,1.1413 0.1717,0.32752 0.60838,0.89322 0.97063,1.2565 0.48929,0.49224 0.87237,0.76517 1.4996,1.0689 0.59547,0.28781 1.0768,0.44165 1.6495,0.52501 0.62327,0.0914 0.99544,0.0914 1.6266,0 0.59647,-0.0853 1.048,-0.23025 1.6624,-0.53097 0.62823,-0.30864 1.0123,-0.58455 1.5016,-1.0818 0.44165,-0.44759 0.7771,-0.9081 1.0192,-1.3984 0.1975,-0.40295 0.43072,-1.0679 0.51708,-1.4768 0.12704,-0.59846 0.14491,-1.0848 0.0933,-2.4812 -0.0357,-0.95575 -0.131,-2.3849 -0.2114,-3.1759 -0.0804,-0.79098 -0.23819,-2.0197 -0.35034,-2.7293 -0.11215,-0.70961 -0.33644,-1.8935 -0.49921,-2.63 -0.16178,-0.7374 -0.40591,-1.7418 -0.54189,-2.233 -0.13597,-0.49126 -0.42776,-1.452 -0.64808,-2.1338 -0.22033,-0.68282 -0.66693,-1.9155 -0.99146,-2.7412 -0.32453,-0.82572 -0.98354,-2.2994 -1.4659,-3.2751 -0.48135,-0.97559 -1.1334,-2.2211 -1.449,-2.7669 -0.31561,-0.54585 -0.95079,-1.5691 -1.4113,-2.2748 -0.46149,-0.70565 -1.1761,-1.7328 -1.5899,-2.2827 -0.41287,-0.54983 -1.179,-1.5145 -1.7021,-2.1416 -0.52204,-0.62823 -1.5542,-1.7606 -2.2916,-2.5168 -0.73838,-0.75723 -1.8341,-1.8102 -2.4346,-2.3412 -0.60044,-0.53096 -1.583,-1.3557 -2.1834,-1.8321 -0.60044,-0.47638 -1.8112,-1.3517 -2.6905,-1.9453 -0.87833,-0.59348 -2.1516,-1.3974 -2.8285,-1.7864 -0.67588,-0.38904 -1.9442,-1.057 -2.8176,-1.4857 -0.87336,-0.42774 -2.3244,-1.0679 -3.2255,-1.4222 -0.90016,-0.3543 -2.1368,-0.80389 -2.7462,-0.9994 -0.61037,-0.19551 -1.704,-0.51112 -2.4315,-0.70167 -0.72748,-0.18957 -1.7467,-0.43568 -2.2657,-0.54585 -0.51806,-0.11014 -1.5085,-0.2908 -2.1993,-0.40195 -0.69076,-0.1112 -1.8748,-0.26796 -2.63,-0.34836 -0.75527,-0.0803 -2.2668,-0.16868 -3.3585,-0.19649 z m -0.39698,21.627 c -1.3607,-0.0307 -1.9244,-0.005 -2.368,0.10728 -0.31957,0.0814 -0.87933,0.30566 -1.2455,0.49721 -0.36523,0.19255 -0.89718,0.57166 -1.182,0.84359 -0.28483,0.27094 -0.69274,0.76419 -0.9071,1.0957 -0.21338,0.33047 -0.49127,0.90015 -0.6173,1.2654 -0.18461,0.53593 -0.22827,0.87435 -0.22827,1.7557 0,0.8813 0.0437,1.2197 0.22827,1.7556 0.12603,0.36523 0.39996,0.92399 0.60838,1.2406 0.20941,0.31758 0.49325,0.69274 0.63021,0.83566 0.13794,0.14191 0.44761,0.4208 0.68976,0.61929 0.24215,0.19849 0.72648,0.49027 1.0758,0.64808 0.35034,0.15779 0.88229,0.33346 1.182,0.39004 0.30072,0.0566 1.046,0.12995 1.6584,0.16172 0.61137,0.0318 1.5046,0.12709 1.9849,0.21042 0.47937,0.0834 1.3269,0.30368 1.8818,0.48927 0.55578,0.1856 1.2922,0.47936 1.6376,0.65304 0.34538,0.17279 0.98552,0.54783 1.4222,0.83168 0.43668,0.28483 1.1036,0.78206 1.4817,1.1046 0.37814,0.32354 1.0262,0.99544 1.4391,1.4937 0.41287,0.49821 0.96567,1.2684 1.2287,1.711 0.263,0.44264 0.65304,1.2247 0.8674,1.7368 0.21438,0.51309 0.50219,1.3964 0.64014,1.9621 0.15383,0.63121 0.29178,1.6028 0.35629,2.5168 0.0585,0.81878 0.17268,1.7785 0.25407,2.1327 0.0814,0.35432 0.3037,0.93887 0.49227,1.3001 0.18957,0.36026 0.57761,0.89321 0.86146,1.184 0.28483,0.29079 0.78206,0.70068 1.1056,0.91008 0.32355,0.20941 0.88131,0.47342 1.2406,0.58555 0.35828,0.11317 0.99146,0.23026 1.4063,0.26004 0.526,0.0387 0.98552,0.004 1.5145,-0.11406 0.41683,-0.0923 1.0729,-0.32553 1.4559,-0.51708 0.4466,-0.22331 0.92496,-0.57761 1.3329,-0.98452 0.43569,-0.4357 0.76023,-0.88429 1.0312,-1.4262 0.21834,-0.4357 0.44959,-1.05 0.51608,-1.3666 0.0804,-0.38606 0.10223,-1.1443 0.0665,-2.3114 -0.0337,-1.1195 -0.12902,-2.1734 -0.26796,-2.9645 -0.1191,-0.67587 -0.36821,-1.7815 -0.5538,-2.4583 -0.18559,-0.67687 -0.54189,-1.7547 -0.79199,-2.3948 -0.24911,-0.64014 -0.74534,-1.7229 -1.1006,-2.4048 -0.3553,-0.68281 -0.94183,-1.6852 -1.3021,-2.228 -0.36125,-0.54288 -1.0044,-1.4182 -1.4281,-1.9462 -0.42478,-0.52698 -1.2267,-1.4132 -1.7825,-1.969 -0.55578,-0.55578 -1.444,-1.3597 -1.9749,-1.7864 -0.53097,-0.42776 -1.4172,-1.0748 -1.969,-1.4381 -0.55181,-0.36424 -1.5066,-0.92597 -2.1218,-1.2495 -0.61632,-0.32254 -1.6326,-0.79198 -2.2589,-1.0441 -0.62724,-0.2511 -1.6763,-0.61334 -2.3323,-0.80489 -0.65603,-0.19153 -1.84,-0.4615 -2.632,-0.59944 -1.0619,-0.18461 -1.9066,-0.26102 -3.2255,-0.2898 z"
         id="icon" /></g></g></svg>